<svg width="12" height="12" viewBox="0 0 12 12" fill="none" xmlns="http://www.w3.org/2000/svg">
<g clip-path="url(#clip0)">
<path fill-rule="evenodd" clip-rule="evenodd" d="M9.18225 2.8169C8.58146 2.21647 7.82301 1.79833 6.99457 1.61084C6.16614 1.42334 5.30155 1.47413 4.50077 1.75735C3.69999 2.04056 2.99571 2.54464 2.46937 3.21129C1.94302 3.87794 1.6161 4.67994 1.52639 5.52458C1.43669 6.36922 1.58787 7.222 1.96245 7.98433C2.33703 8.74666 2.91972 9.38742 3.64315 9.83251C4.36658 10.2776 5.20122 10.5089 6.05055 10.4996C6.89989 10.4902 7.72925 10.2407 8.44275 9.77989C8.52535 9.72326 8.61845 9.68374 8.71656 9.66367C8.81468 9.6436 8.91582 9.64338 9.01401 9.66303C9.11221 9.68268 9.20548 9.72179 9.28832 9.77807C9.37116 9.83434 9.44189 9.90664 9.49634 9.99069C9.55079 10.0747 9.58785 10.1688 9.60534 10.2675C9.62284 10.3661 9.6204 10.4672 9.59819 10.5648C9.57598 10.6625 9.53443 10.7547 9.476 10.836C9.41757 10.9174 9.34345 10.9862 9.258 11.0384C8.13804 11.7626 6.8087 12.093 5.48 11.9774C4.1513 11.8618 2.89899 11.3068 1.92091 10.4001C0.942827 9.49338 0.294732 8.28661 0.0790117 6.97046C-0.136708 5.6543 0.0922444 4.30379 0.7297 3.13228C1.36716 1.96076 2.37677 1.03503 3.59905 0.501329C4.82133 -0.0323698 6.18659 -0.14361 7.47914 0.185182C8.7717 0.513973 9.91786 1.26405 10.7366 2.31692C11.5553 3.36979 11.9998 4.66543 12 5.99914C12.0001 6.41706 11.8839 6.82676 11.6643 7.18231C11.4446 7.53787 11.1303 7.82523 10.7566 8.01219C10.3828 8.19915 9.96436 8.27831 9.54813 8.24082C9.1319 8.20332 8.73433 8.05064 8.4 7.79989C7.97261 8.36975 7.3564 8.76893 6.66162 8.92603C5.96684 9.08312 5.23883 8.98787 4.60785 8.65732C3.97687 8.32677 3.4841 7.78248 3.2177 7.12185C2.95131 6.46122 2.92867 5.72736 3.15384 5.05157C3.37901 4.37577 3.83729 3.80215 4.4467 3.43334C5.0561 3.06452 5.77685 2.92458 6.48 3.03854C7.18314 3.15251 7.82278 3.51296 8.28449 4.05539C8.74619 4.59781 8.99982 5.28683 9 5.99914C9 6.19806 9.07902 6.38882 9.21967 6.52947C9.36032 6.67013 9.55109 6.74914 9.75 6.74914C9.94891 6.74914 10.1397 6.67013 10.2803 6.52947C10.421 6.38882 10.5 6.19806 10.5 5.99914C10.5 4.8464 10.0605 3.69665 9.18225 2.8169ZM7.5 5.99914C7.5 5.60132 7.34197 5.21979 7.06066 4.93849C6.77936 4.65718 6.39783 4.49915 6 4.49915C5.60218 4.49915 5.22065 4.65718 4.93935 4.93849C4.65804 5.21979 4.50001 5.60132 4.50001 5.99914C4.50001 6.39697 4.65804 6.7785 4.93935 7.0598C5.22065 7.34111 5.60218 7.49914 6 7.49914C6.39783 7.49914 6.77936 7.34111 7.06066 7.0598C7.34197 6.7785 7.5 6.39697 7.5 5.99914Z" fill="white"/>
</g>
<defs>
<clipPath id="clip0">
<rect width="12" height="12" fill="white"/>
</clipPath>
</defs>
</svg>
