<svg width="10" height="10" viewBox="0 0 10 10" fill="none" xmlns="http://www.w3.org/2000/svg">
<path d="M0.32375 0.504685C0.239035 0.503849 0.157431 0.536576 0.0967693 0.595716C0.0361071 0.654855 0.00131704 0.7356 0 0.82031C0 0.839997 0.0015625 0.85781 0.005 0.875622L1.36406 9.13093C1.38094 9.23201 1.43302 9.32386 1.51107 9.39025C1.58913 9.45665 1.68815 9.4933 1.79063 9.49375H8.3125C8.47188 9.49531 8.60719 9.38156 8.63312 9.22531L9.99531 0.87906C10.0022 0.837673 10.0009 0.795327 9.99133 0.754466C9.9818 0.713604 9.96426 0.675036 9.93974 0.640986C9.91522 0.606937 9.8842 0.578079 9.84847 0.55608C9.81274 0.534081 9.77301 0.519374 9.73156 0.51281C9.71329 0.509679 9.69479 0.508007 9.67625 0.50781L0.32375 0.504685ZM6.04969 6.46968H3.96812L3.405 3.52687H6.55438L6.04969 6.46968Z" fill="white"/>
</svg>
