<svg width="10" height="10" viewBox="0 0 10 10" fill="none" xmlns="http://www.w3.org/2000/svg">
<g clip-path="url(#clip0)">
<path d="M4.99917 0C2.23583 0 1.1127e-06 2.23625 1.1127e-06 5C-0.000437147 5.65673 0.128593 6.30711 0.379711 6.91393C0.630829 7.52076 0.99911 8.07213 1.46349 8.53651C1.92787 9.00089 2.47924 9.36917 3.08607 9.62029C3.69289 9.87141 4.34327 10.0004 5 10C7.76375 10 10 7.76375 10 5C9.99958 2.23625 7.745 0 4.99917 0ZM2.65417 6.07292C2.8175 6.29083 3.03583 6.38208 3.34458 6.38208C3.49042 6.38208 3.63583 6.36375 3.76292 6.30917C3.89042 6.255 4.03583 6.18167 4.21708 6.07292L4.72667 6.8C4.30875 7.14583 3.83583 7.30917 3.29042 7.30917C2.85375 7.30917 2.49042 7.21833 2.16333 7.03667C1.8458 6.84935 1.59224 6.57051 1.43583 6.23667C1.2725 5.89083 1.18125 5.49083 1.18125 5.01792C1.18125 4.56375 1.2725 4.14542 1.43542 3.8C1.59097 3.45588 1.84425 3.16508 2.16375 2.96375C2.4725 2.76375 2.85417 2.67292 3.2725 2.67292C3.56375 2.67292 3.83625 2.70917 4.05458 2.8C4.29953 2.89481 4.52685 3.03002 4.72708 3.2L4.21792 3.89083C4.08866 3.7954 3.94833 3.71593 3.8 3.65417C3.67292 3.6 3.50917 3.58167 3.36333 3.58167C2.74542 3.58167 2.43625 4.05417 2.43625 5.0175C2.41833 5.50917 2.50917 5.85417 2.65458 6.0725H2.65417V6.07292ZM7.65417 7.2C7.4725 7.76375 7.19958 8.18208 6.8175 8.49083C6.43583 8.80042 5.92667 8.96375 5.29042 9.01833L5.16333 8.16417C5.58125 8.10917 5.89042 8.01833 6.09042 7.8725C6.16292 7.81833 6.30875 7.65458 6.30875 7.65458L4.79958 2.81833H6.05375L6.92667 6.43625L7.85417 2.81833H9.07208L7.65417 7.2Z" fill="white"/>
</g>
<defs>
<clipPath id="clip0">
<rect width="10" height="10" fill="white"/>
</clipPath>
</defs>
</svg>
