<svg width="20" height="20" viewBox="0 0 20 20" fill="none" xmlns="http://www.w3.org/2000/svg">
<path d="M10.394 2.08C10.2695 2.02663 10.1355 1.99911 10 1.99911C9.86454 1.99911 9.7305 2.02663 9.606 2.08L2.606 5.08C2.42561 5.15685 2.27179 5.28503 2.16368 5.4486C2.05556 5.61218 1.99792 5.80393 1.99792 6C1.99792 6.19608 2.05556 6.38783 2.16368 6.5514C2.27179 6.71497 2.42561 6.84316 2.606 6.92L5.25 8.051C5.34814 7.93999 5.46974 7.85221 5.606 7.794L9.606 6.08C9.72704 6.02605 9.8576 5.9967 9.99009 5.99365C10.1226 5.9906 10.2543 6.01392 10.3777 6.06224C10.5011 6.11056 10.6137 6.18293 10.7089 6.27514C10.8041 6.36734 10.88 6.47755 10.9322 6.59935C10.9844 6.72115 11.0119 6.85211 11.0131 6.98462C11.0142 7.11714 10.989 7.24857 10.939 7.37126C10.8889 7.49396 10.8149 7.60547 10.7214 7.69933C10.6278 7.79319 10.5165 7.86752 10.394 7.918L7.667 9.088L9.607 9.919C9.73136 9.97223 9.86523 9.99968 10.0005 9.99968C10.1358 9.99968 10.2696 9.97223 10.394 9.919L17.394 6.919C17.5738 6.84187 17.727 6.71369 17.8347 6.55034C17.9424 6.38699 17.9997 6.19564 17.9997 6C17.9997 5.80436 17.9424 5.61301 17.8347 5.44966C17.727 5.28631 17.5738 5.15813 17.394 5.081L10.394 2.081V2.08Z" fill="#0073E6"/>
<path d="M3.31 9.397L5 10.12V14.222C4.65375 14.1433 4.30314 14.0852 3.95 14.048C3.72215 14.0241 3.50942 13.9226 3.34742 13.7606C3.18541 13.5986 3.08395 13.3859 3.06 13.158C2.92849 11.8989 3.01304 10.6266 3.31 9.396V9.397Z" fill="#0073E6"/>
<path d="M9.3 16.573C8.62401 15.9097 7.84785 15.357 7 14.935V10.978L8.818 11.758C9.1915 11.9181 9.59363 12.0007 10 12.0007C10.4064 12.0007 10.8085 11.9181 11.182 11.758L16.69 9.397C16.9887 10.6273 17.0733 11.9 16.94 13.159C16.9161 13.3869 16.8146 13.5996 16.6526 13.7616C16.4906 13.9236 16.2779 14.0251 16.05 14.049C14.0325 14.261 12.1465 15.1508 10.7 16.573C10.5131 16.7562 10.2618 16.8589 10 16.8589C9.73825 16.8589 9.48693 16.7562 9.3 16.573Z" fill="#0073E6"/>
<path d="M6 18C6.26522 18 6.51957 17.8946 6.70711 17.7071C6.89464 17.5196 7 17.2652 7 17V14.935C6.364 14.619 5.69259 14.38 5 14.223V17C5 17.2652 5.10536 17.5196 5.29289 17.7071C5.48043 17.8946 5.73478 18 6 18Z" fill="#0073E6"/>
</svg>
