<svg width="10" height="10" viewBox="0 0 10 10" fill="none" xmlns="http://www.w3.org/2000/svg">
<g clip-path="url(#clip0)">
<path d="M9.8112 4.55444L5.44433 0.189132C5.38453 0.12918 5.31349 0.0816145 5.23528 0.0491601C5.15707 0.0167056 5.07322 0 4.98854 0C4.90387 0 4.82002 0.0167056 4.74181 0.0491601C4.6636 0.0816145 4.59256 0.12918 4.53276 0.189132L3.62776 1.09569L4.77839 2.24476C4.91355 2.19891 5.05886 2.19185 5.19783 2.22438C5.3368 2.25691 5.46387 2.32774 5.56464 2.42882C5.77964 2.64382 5.83964 2.95288 5.7487 3.21976L6.85558 4.32819C6.99119 4.28097 7.13738 4.27302 7.27731 4.30525C7.41725 4.33748 7.54523 4.40859 7.64651 4.51038C7.94776 4.80976 7.94776 5.29476 7.64651 5.59444C7.57549 5.66561 7.49112 5.72207 7.39825 5.7606C7.30537 5.79912 7.20581 5.81895 7.10526 5.81895C7.00472 5.81895 6.90516 5.79912 6.81228 5.7606C6.71941 5.72207 6.63504 5.66561 6.56401 5.59444C6.45735 5.48772 6.38442 5.35198 6.35431 5.20413C6.32419 5.05627 6.33822 4.90283 6.39464 4.76288L5.35776 3.73101V6.45069C5.43089 6.48663 5.50089 6.53538 5.5612 6.59569C5.85901 6.89694 5.85901 7.38007 5.5612 7.67976C5.41683 7.82355 5.22137 7.90428 5.01761 7.90428C4.81385 7.90428 4.61839 7.82355 4.47401 7.67976C4.38468 7.59039 4.31882 7.48032 4.2823 7.35935C4.24578 7.23838 4.23973 7.11026 4.26469 6.98639C4.28965 6.86252 4.34484 6.74673 4.42536 6.64935C4.50588 6.55196 4.60923 6.47599 4.7262 6.42819V3.68257C4.6329 3.64294 4.54788 3.58612 4.47558 3.51507C4.36804 3.40782 4.29495 3.27091 4.26567 3.12188C4.23639 2.97285 4.25224 2.81848 4.3112 2.67851L3.18151 1.54257L0.186826 4.53569C0.067109 4.65719 0 4.82091 0 4.99148C0 5.16204 0.067109 5.32576 0.186826 5.44726L4.5537 9.81257C4.6135 9.87252 4.68454 9.92009 4.76275 9.95254C4.84096 9.985 4.92481 10.0017 5.00948 10.0017C5.09416 10.0017 5.178 9.985 5.25621 9.95254C5.33443 9.92009 5.40546 9.87252 5.46526 9.81257L9.81089 5.46694C9.87084 5.40715 9.91841 5.33611 9.95086 5.2579C9.98332 5.17968 10 5.09584 10 5.01116C10 4.92649 9.98332 4.84264 9.95086 4.76443C9.91841 4.68622 9.87084 4.61518 9.81089 4.55538L9.8112 4.55444Z" fill="white"/>
</g>
<defs>
<clipPath id="clip0">
<rect width="10" height="10" fill="white"/>
</clipPath>
</defs>
</svg>
