<svg width="10" height="10" viewBox="0 0 10 10" fill="none" xmlns="http://www.w3.org/2000/svg">
<g clip-path="url(#clip0)">
<path d="M4.6127 4.14056H5.38717L5.57956 3.87571V1.80083H4.42038V3.87583L4.6127 4.14054V4.14056ZM4.11344 5.06604L4.35274 4.32952L4.16028 4.06462L2.18698 3.42345L1.82876 4.52595L3.80235 5.16718L4.11344 5.06606V5.06604ZM4.83932 5.82673L4.21282 5.37151L3.90143 5.47286L2.68186 7.15145L3.61963 7.83272L4.83932 6.15407V5.82673V5.82673ZM5.78721 5.37151L5.16059 5.82673V6.15407L6.3802 7.83272L7.31809 7.15147L6.09831 5.47268L5.78721 5.37151V5.37151ZM5.64698 4.32933L5.88639 5.06599L6.19776 5.16698L8.17106 4.52593L7.8129 3.42345L5.83946 4.06472L5.64696 4.32931L5.64698 4.32933ZM8.02838 6.11042L6.52831 5.62292L6.62756 5.31735L8.12754 5.80483L8.02838 6.11042V6.11042ZM6.11524 3.70216L5.85532 3.51333L6.78231 2.2372L7.04231 2.42599L6.11524 3.70216ZM3.90069 3.69044L2.97379 2.41438L3.23379 2.22552L4.16069 3.50167L3.90069 3.69044ZM1.96534 6.09124L1.86612 5.78571L3.36606 5.29851L3.46524 5.60403L1.96534 6.09124V6.09124ZM4.8294 8.18673H5.15065V6.60946H4.82942V8.18673H4.8294ZM2.49459 9.32706C-0.831206 7.40968 -0.831206 2.59024 2.49459 0.67288C5.8204 -1.24448 10.0002 1.16524 10.0002 4.99997C10.0002 8.8347 5.82042 11.2444 2.49459 9.32706V9.32706ZM8.98758 4.99997C8.98758 1.94188 5.6543 0.0202042 3.00206 1.54925C0.34981 3.07829 0.349829 6.92165 3.00206 8.45069C5.65428 9.97974 8.9876 8.05806 8.9876 4.99997H8.98758Z" fill="white"/>
</g>
<defs>
<clipPath id="clip0">
<rect width="10" height="10" fill="white"/>
</clipPath>
</defs>
</svg>
