<svg width="10" height="10" viewBox="0 0 10 10" fill="none" xmlns="http://www.w3.org/2000/svg">
<path d="M7.15812 3.96655C6.6325 1.64874 5.39062 0.888743 5.25719 0.597493C5.11062 0.39093 4.95281 0.000305176 4.95281 0.000305176C4.95125 0.00843018 4.95125 0.0134302 4.94969 0.0215552V0.0265552C4.94969 0.0331177 4.94812 0.0362427 4.94812 0.0428052V0.0493677H4.94656V0.0703052H4.945C4.945 0.0734302 4.945 0.0784302 4.94344 0.0799927V0.0896802C4.94344 0.0928052 4.94344 0.0962427 4.94187 0.0978052V0.10593C4.94187 0.11093 4.94187 0.115618 4.94031 0.119055V0.120618C4.94004 0.127793 4.93899 0.134917 4.93719 0.141868V0.144993C4.93562 0.146555 4.93562 0.148118 4.93562 0.149993V0.156555H4.93406V0.166243H4.9325V0.172805H4.92937V0.182493H4.92781V0.190618H4.92625V0.19718H4.92469V0.203743H4.92312V0.210305H4.92156V0.216868H4.92V0.221868H4.91844V0.22843H4.91687V0.234993H4.91531C4.91375 0.234993 4.91375 0.236555 4.91375 0.236555V0.23968L4.91219 0.242805C4.91219 0.24593 4.91062 0.249368 4.90906 0.252493C4.9075 0.254055 4.9075 0.254055 4.9075 0.255618V0.258743H4.90594V0.261868H4.90281V0.269993H4.89969V0.274993H4.89812V0.276555H4.89656V0.27968H4.895V0.28468H4.89344V0.287805H4.89031V0.292805H4.88875V0.29593H4.88719V0.299055H4.88562V0.304055H4.88406V0.30718H4.8825V0.308743H4.88094V0.311868H4.87781V0.316868H4.87625V0.31843H4.87469V0.321555H4.87312V0.326555H4.87156V0.328118H4.87V0.331243H4.86844V0.332805H4.86687V0.337805H4.86375V0.339368H4.86219V0.342493H4.86062V0.344055H4.85906V0.34718H4.8575V0.350305C4.85594 0.350305 4.85594 0.351868 4.85594 0.351868V0.35343H4.85437L4.84937 0.361555C4.84937 0.361555 4.84625 0.36468 4.84625 0.366555C4.84469 0.366555 4.84469 0.368118 4.84469 0.368118V0.36968H4.84312V0.371243H4.84156V0.374368H4.83844V0.37593H4.83687V0.377493H4.83531V0.38218H4.83375V0.383743H4.83219V0.385305H4.83062V0.38843H4.82906V0.385305H4.82594V0.386868H4.82437V0.389993H4.82281V0.393118H4.82125V0.39468H4.81969V0.396243H4.81812V0.397805H4.81656V0.40093H4.81344V0.402493H4.81187V0.405618H4.81031V0.40718H4.80875V0.408743H4.80719V0.413743H4.80562V0.415305H4.80406V0.416868H4.8025V0.41843H4.80094V0.419993H4.79781V0.423118H4.79625V0.42468H4.79469V0.426243H4.79312V0.429368H4.79156V0.43093H4.78844V0.432493H4.78687V0.434055H4.78531V0.43718H4.78375V0.440305H4.78219V0.441868H4.78062V0.44343H4.7775V0.444993H4.77594V0.446555H4.77437V0.44968H4.77281V0.451243H4.77125V0.454368H4.76969V0.45593H4.76812V0.457493H4.76656V0.459055H4.765V0.460618H4.76187V0.46218C4.76031 0.46218 4.76031 0.463743 4.76031 0.463743L4.75875 0.465305L4.75719 0.466868V0.469993H4.75562V0.471555H4.75406V0.473118H4.7525V0.47468H4.75094L4.74781 0.477805V0.479368C4.74469 0.48093 4.74469 0.482493 4.74125 0.48593C4.74125 0.48593 4.73812 0.489055 4.73625 0.489055C4.73125 0.49218 4.725 0.498743 4.72 0.503743C4.71687 0.505305 4.71344 0.508743 4.71031 0.510305C4.70375 0.516868 4.69719 0.521555 4.69062 0.526555C4.68094 0.536243 4.67094 0.542805 4.65969 0.552493H4.65812L4.58156 0.619368H4.58C4.51 0.681243 4.42687 0.76093 4.3325 0.855305L4.32437 0.86343C3.75781 1.44937 2.86437 2.67155 2.77156 4.64593C2.76187 4.80874 2.76344 4.96812 2.77312 5.1228V5.12593C2.81875 5.90405 3.06281 6.56812 3.36875 7.10843C3.48906 7.32343 3.62094 7.51874 3.75437 7.69437C4.21344 8.29999 4.68219 8.65968 4.80094 8.74749C4.985 9.17218 4.96844 9.90468 4.96844 9.90468L5.23687 9.99405C5.23687 9.99405 5.18156 9.28593 5.25812 8.94249C5.2825 8.83655 5.33781 8.74562 5.40312 8.66749C5.44875 8.63655 5.57906 8.54218 5.73531 8.39905C5.74344 8.39093 5.74844 8.38437 5.755 8.37624C6.38812 7.7853 7.57156 6.3303 7.16625 3.96062L7.15812 3.96655Z" fill="white"/>
</svg>
