<svg width="10" height="10" viewBox="0 0 10 10" fill="none" xmlns="http://www.w3.org/2000/svg">
<g clip-path="url(#clip0)">
<path d="M7.42156 9.37725C7.38438 9.39694 7.3875 9.40319 7.42312 9.38507C7.4341 9.38058 7.44417 9.37412 7.45281 9.366C7.45281 9.35944 7.45281 9.35944 7.42156 9.37725V9.37725ZM7.49656 9.33663C7.47875 9.35132 7.47875 9.35132 7.5 9.34163C7.50785 9.33795 7.51503 9.33299 7.52125 9.32694C7.52125 9.3185 7.51625 9.32038 7.49656 9.33663V9.33663ZM7.54531 9.30725C7.5275 9.32194 7.5275 9.32194 7.54875 9.31225C7.55663 9.3085 7.56382 9.30342 7.57 9.29725C7.57 9.28944 7.565 9.291 7.54531 9.30725ZM7.59469 9.27819C7.57687 9.29288 7.57688 9.29288 7.5975 9.28288C7.60906 9.27663 7.61875 9.27007 7.61875 9.26819C7.61875 9.26038 7.61375 9.26194 7.59469 9.27819ZM7.66125 9.23413C7.62719 9.25694 7.61531 9.27163 7.64656 9.25538C7.6675 9.24257 7.70312 9.21444 7.69687 9.21444C7.68344 9.21944 7.67219 9.22788 7.66094 9.23413H7.66125ZM4.67281 0.00412794C4.65 0.00569044 4.58156 0.0119404 4.52156 0.0169404C3.10031 0.14569 1.77063 0.910691 0.927813 2.08913C0.462051 2.73546 0.159299 3.48472 0.0453125 4.27319C0.005 4.54819 0 4.62944 0 5.00225C0 5.37475 0.005 5.45475 0.0453125 5.72975C0.3175 7.60819 1.65375 9.18507 3.465 9.76944C3.79094 9.8735 4.1325 9.94538 4.52156 9.98944C4.67281 10.0057 5.32688 10.0057 5.47813 9.98944C6.15063 9.91444 6.71844 9.7485 7.28031 9.46194C7.36656 9.41819 7.38281 9.40663 7.37125 9.39694C7.09715 9.03462 6.82538 8.67055 6.55594 8.30475L5.75688 7.22569L4.75594 5.74288C4.42299 5.2464 4.08663 4.75222 3.74687 4.26038C3.74344 4.26038 3.73906 4.91944 3.73719 5.72319C3.73375 7.131 3.73375 7.18819 3.71594 7.22069C3.69886 7.25995 3.66825 7.29178 3.62969 7.31038C3.59875 7.32507 3.57094 7.32819 3.42313 7.32819H3.25406L3.21 7.30069C3.1824 7.28299 3.15998 7.2583 3.145 7.22913L3.12375 7.18507L3.12531 5.22538L3.12875 3.26569L3.15969 3.22663C3.17945 3.20261 3.20377 3.18275 3.23125 3.16819C3.27219 3.1485 3.28844 3.14538 3.4575 3.14538C3.65594 3.14538 3.68875 3.15319 3.74094 3.21038C4.14642 3.81346 4.5484 4.41889 4.94687 5.02663C5.59656 6.01163 6.48344 7.35569 6.91938 8.01507L7.71219 9.21475L7.75125 9.18882C8.13226 8.93562 8.47754 8.63239 8.77781 8.28725C9.40767 7.56634 9.81638 6.67916 9.955 5.73194C9.99531 5.45694 10.0003 5.37538 10.0003 5.00288C10.0003 4.63007 9.99531 4.55038 9.955 4.27538C9.68281 2.39694 8.34656 0.820066 6.53531 0.235378C6.19681 0.128166 5.84839 0.055196 5.49531 0.0175654C5.40062 0.00787794 4.75438 -0.00368456 4.67313 0.00475294L4.67281 0.00412794ZM6.71875 3.02819C6.742 3.03961 6.76274 3.05555 6.77975 3.07508C6.79676 3.09461 6.8097 3.11734 6.81781 3.14194C6.82625 3.16819 6.82781 3.71163 6.82625 4.93569L6.82281 6.69319L6.51375 6.21819L6.20281 5.74288V4.46694C6.20281 3.63975 6.20625 3.176 6.21063 3.15319C6.22592 3.10088 6.26101 3.0566 6.30844 3.02975C6.34719 3.01007 6.36219 3.0085 6.51688 3.0085C6.66156 3.0085 6.68594 3.01007 6.71844 3.02819H6.71875Z" fill="white"/>
</g>
<defs>
<clipPath id="clip0">
<rect width="10" height="10" fill="white"/>
</clipPath>
</defs>
</svg>
