<svg width="15" height="15" viewBox="0 0 15 15" fill="none" xmlns="http://www.w3.org/2000/svg">
<path d="M13.0583 8.6619V9.35669H14.2967C14.5508 9.35669 14.9855 9.16941 15 8.64079V8.37177C15 7.92264 14.6385 7.65586 14.2967 7.65586H13.6787V7.33294H14.902V6.63096H13.7274C13.4245 6.63096 13.0194 6.88607 13.0194 7.35854V7.60197C13.0194 8.07445 13.4198 8.31787 13.7274 8.31787C14.5799 8.32236 13.522 8.31787 14.3112 8.31787V8.65696L13.0583 8.6619ZM6.41826 8.49123C6.41826 8.49123 7.08268 8.43285 7.08268 7.56469C7.08268 6.69429 6.27899 6.61255 6.27899 6.61255H4.83057V9.35624H5.5583V8.69424L6.1885 9.35624H7.26321L6.41826 8.49123ZM6.13739 7.92983H5.55877V7.30285H6.14254C6.14254 7.30285 6.30619 7.36348 6.30619 7.6141C6.30619 7.86471 6.13739 7.92983 6.13739 7.92983ZM8.87715 6.63186H8.13958C7.61207 6.63186 7.43389 7.11826 7.43389 7.34776V9.35714H8.1738V8.87748H8.8673V9.35714H9.58284V7.34776C9.58284 6.76301 9.06002 6.63186 8.87715 6.63186ZM8.8673 8.09825H8.16865V7.434C8.16865 7.434 8.16865 7.28174 8.40075 7.28174H8.65489C8.85746 7.28174 8.86261 7.434 8.86261 7.434V8.09825H8.8673ZM9.91998 6.63186H10.6894V9.35714H9.91998V6.63186ZM11.7688 8.65292V6.63186H11.0045V9.35714H12.8046V8.65292H11.7688ZM0.266333 9.35669H3.25789C3.25789 9.35669 2.68631 6.70642 4.58159 5.63032C4.99422 5.42686 6.30807 4.66425 8.46218 6.28065C8.52829 6.22451 8.59393 6.1778 8.59393 6.1778C8.59393 6.1778 6.62316 4.1801 4.43013 4.40241C3.32635 4.50302 1.97077 5.52298 1.17459 6.87035C0.3784 8.21772 0.266333 9.35669 0.266333 9.35669ZM0.266333 9.35669H3.25789C3.25789 9.35669 2.68631 6.70642 4.58159 5.63032C4.99422 5.42686 6.30807 4.66425 8.46218 6.28065C8.52829 6.22451 8.59393 6.1778 8.59393 6.1778C8.59393 6.1778 6.62316 4.1801 4.43013 4.40241C3.32635 4.50302 1.97077 5.52298 1.17459 6.87035C0.3784 8.21772 0.266333 9.35669 0.266333 9.35669ZM0.266333 9.35669H3.25789C3.25789 9.35669 2.68631 6.70642 4.58159 5.63032C4.99422 5.42686 6.30807 4.66425 8.46218 6.28065C8.52829 6.22451 8.59393 6.1778 8.59393 6.1778C8.59393 6.1778 6.62316 4.1801 4.43013 4.40241C3.32401 4.50302 1.96608 5.52298 1.1699 6.87035C0.376055 8.21772 0.266333 9.35669 0.266333 9.35669ZM6.50125 4.61979L6.51813 4.3602C6.4839 4.34133 6.38872 4.29462 6.14958 4.22681L6.13504 4.47966C6.25977 4.52188 6.38168 4.56814 6.50125 4.61979ZM6.14208 5.43405L6.12754 5.67748C6.25227 5.68197 6.37652 5.69634 6.50125 5.72418L6.51813 5.4857C6.39425 5.45977 6.26857 5.4425 6.14208 5.43405ZM4.74008 4.23399H4.77665L4.70116 4C4.58393 4 4.46436 4.00719 4.33729 4.02111L4.41044 4.25016C4.52016 4.23848 4.63035 4.23399 4.74008 4.23399ZM4.92107 5.65143L5.00922 5.91596C5.11495 5.86262 5.22522 5.81799 5.33886 5.78257L5.25586 5.52747C5.12645 5.56475 5.01672 5.60696 4.92107 5.65143ZM3.20163 4.63865L3.03048 4.37187C2.93529 4.42352 2.83776 4.47697 2.73507 4.53805L2.91091 4.80707C3.005 4.74659 3.10201 4.69039 3.20163 4.63865ZM3.97812 6.36957L4.16146 6.64803C4.22476 6.55192 4.30072 6.46344 4.38371 6.37451L4.21257 6.11268C4.12787 6.19278 4.04951 6.27835 3.97812 6.36957ZM3.42904 7.6096L3.73664 7.85752C3.75117 7.70527 3.77837 7.55571 3.81494 7.40615L3.54392 7.18608C3.49281 7.3289 3.46093 7.47127 3.42904 7.6096ZM1.77055 5.78257L1.49953 5.54409C1.402 5.6402 1.30681 5.73586 1.22101 5.83197L1.51172 6.08708C1.59237 5.98198 1.67771 5.87823 1.77055 5.78257ZM0.625039 7.50181L0.190372 7.34058C0.117224 7.50676 0.0389184 7.69853 0 7.80363L0.434667 7.96486C0.485777 7.83372 0.564083 7.64419 0.625039 7.50181ZM3.37277 8.58735C3.38028 8.7908 3.3995 8.95697 3.41685 9.07375L3.87355 9.23768C3.83485 9.07216 3.80387 8.90507 3.78071 8.7369L3.37277 8.58735Z" fill="white"/>
</svg>
