<svg width="10" height="10" viewBox="0 0 10 10" fill="none" xmlns="http://www.w3.org/2000/svg">
<path d="M2.88738 5.70313C2.95571 5.66405 3.04363 5.68847 3.08267 5.75847L3.10871 5.80242C3.30892 6.15722 3.51725 6.49413 3.73371 6.81317C3.98925 7.18913 4.27733 7.57001 4.598 7.95572C4.62241 7.98473 4.63439 8.02219 4.63134 8.05998C4.62829 8.09777 4.61045 8.13283 4.58171 8.15755L4.55079 8.18522C3.49121 9.11134 2.80438 9.29522 2.48696 8.74022C2.17612 8.19663 2.28842 7.2103 2.82388 5.77801C2.83556 5.74635 2.85805 5.71983 2.88738 5.70313V5.70313ZM7.39583 6.79201C7.47233 6.77897 7.54558 6.82784 7.56021 6.9043L7.56838 6.94663C7.83042 8.31542 7.6465 9.00067 7.01658 9.00067C6.39975 9.00067 5.61688 8.41634 4.66308 7.24934C4.64166 7.22331 4.63065 7.19027 4.63217 7.15659C4.63217 7.07847 4.69725 7.01497 4.77538 7.01497H4.82583C5.21632 7.01804 5.60676 7.00447 5.99608 6.9743C6.44204 6.93847 6.90917 6.87826 7.39583 6.79201V6.79201ZM7.75875 3.88509C7.77209 3.84911 7.79897 3.81978 7.83365 3.80335C7.86832 3.78693 7.90805 3.78471 7.94433 3.79717L7.98667 3.81184C9.34571 4.27409 9.86329 4.78351 9.53613 5.33855C9.21713 5.88217 8.28938 6.27772 6.75129 6.52509C6.71713 6.52997 6.68129 6.52342 6.652 6.50551C6.582 6.46484 6.55763 6.37697 6.59992 6.30697L6.62596 6.26305C6.83596 5.91147 7.02471 5.56155 7.19563 5.21159C7.39421 4.7998 7.583 4.35709 7.75879 3.88509H7.75875ZM3.24875 3.47492C3.28292 3.47005 3.31875 3.47659 3.34804 3.49451C3.41804 3.53517 3.44242 3.62305 3.40013 3.69305L3.37408 3.73697C3.16952 4.0793 2.97946 4.4301 2.80442 4.78842C2.60583 5.20022 2.41704 5.64292 2.24125 6.11492C2.22791 6.15089 2.20104 6.18022 2.16637 6.19664C2.13171 6.21307 2.09199 6.21529 2.05571 6.20284L2.01337 6.18817C0.654333 5.72592 0.13675 5.21651 0.463916 4.66147C0.782916 4.11784 1.71067 3.7223 3.24875 3.47492V3.47492ZM5.44925 1.8148C6.50883 0.888674 7.19567 0.704798 7.51308 1.2598C7.82392 1.80338 7.71163 2.78972 7.17617 4.22201C7.16449 4.25367 7.142 4.28019 7.11267 4.29688C7.04433 4.33597 6.95642 4.31155 6.91738 4.24155L6.89133 4.19759C6.69113 3.8428 6.48279 3.50588 6.26633 3.18684C6.01079 2.81088 5.72271 2.43001 5.40204 2.0443C5.37763 2.01529 5.36565 1.97782 5.3687 1.94003C5.37175 1.90224 5.38959 1.86718 5.41833 1.84247L5.44925 1.8148ZM3.0355 0.947299C3.65238 0.947299 4.43688 1.53159 5.38904 2.69855C5.40999 2.72433 5.42147 2.7565 5.42158 2.78972C5.41996 2.86947 5.3565 2.93297 5.27675 2.93297L5.22792 2.9313C4.83742 2.92955 4.44702 2.94367 4.05767 2.97363C3.61008 3.00947 3.14296 3.06967 2.65629 3.15592C2.61944 3.16221 2.58159 3.1538 2.55086 3.13251C2.52013 3.11121 2.49897 3.07872 2.49192 3.04201L2.48375 3.0013C2.22167 1.63251 2.40558 0.947257 3.0355 0.947257V0.947299ZM4.23179 3.36913H5.76825C5.81469 3.36915 5.86031 3.38133 5.90057 3.40446C5.94084 3.42759 5.97434 3.46086 5.99775 3.50097L6.76763 4.84213C6.79004 4.88216 6.80181 4.92728 6.80181 4.97315C6.80181 5.01903 6.79004 5.06414 6.76763 5.10417L5.99775 6.44697C5.97435 6.48706 5.94085 6.52033 5.90059 6.54346C5.86033 6.56659 5.81472 6.57878 5.76829 6.5788H4.23183C4.13742 6.5788 4.04954 6.52834 4.00392 6.44697L3.23246 5.10417C3.21004 5.06414 3.19827 5.01902 3.19827 4.97313C3.19827 4.92725 3.21004 4.88213 3.23246 4.84209L4.00396 3.50097C4.0495 3.41959 4.13742 3.36913 4.23179 3.36913V3.36913ZM5.57783 3.69955C5.62427 3.69956 5.66989 3.71174 5.71016 3.73487C5.75042 3.758 5.78393 3.79128 5.80733 3.83138L6.38675 4.84213C6.40916 4.88216 6.42093 4.92728 6.42093 4.97315C6.42093 5.01903 6.40916 5.06414 6.38675 5.10417L5.80733 6.11655C5.78393 6.15665 5.75042 6.18993 5.71016 6.21306C5.66989 6.23619 5.62427 6.24837 5.57783 6.24838H4.42225C4.32783 6.24838 4.23996 6.19792 4.19438 6.11655L3.61333 5.10417C3.59091 5.06414 3.57914 5.01902 3.57914 4.97313C3.57914 4.92725 3.59091 4.88213 3.61333 4.84209L4.19438 3.83138C4.23996 3.75001 4.32783 3.69955 4.42225 3.69955H5.57783ZM5.37275 4.06088H4.62733C4.53292 4.06088 4.44667 4.10972 4.39942 4.19272L4.02513 4.84213C4.00271 4.88216 3.99095 4.92728 3.99095 4.97315C3.99095 5.01903 4.00271 5.06414 4.02513 5.10417L4.39946 5.75522C4.42252 5.79526 4.45573 5.82853 4.49573 5.85167C4.53573 5.87481 4.58112 5.88701 4.62733 5.88705H5.37275C5.41897 5.88702 5.46437 5.87482 5.50438 5.85168C5.54439 5.82854 5.5776 5.79527 5.60067 5.75522L5.97496 5.10417C5.99738 5.06414 6.00915 5.01902 6.00915 4.97313C6.00915 4.92725 5.99738 4.88213 5.97496 4.84209L5.60063 4.19272C5.55342 4.10972 5.46717 4.06088 5.37275 4.06088ZM5.17421 4.40592C5.26858 4.40592 5.3565 4.45638 5.40204 4.53776L5.57788 4.84213C5.62504 4.92351 5.62504 5.02442 5.57788 5.10417L5.40204 5.41017C5.3565 5.49155 5.26858 5.54201 5.17421 5.54201H4.82588C4.77967 5.54196 4.73429 5.52976 4.69429 5.50662C4.6543 5.48348 4.62111 5.45021 4.59804 5.41017L4.42221 5.10417C4.37504 5.02442 4.37504 4.92351 4.42221 4.84209L4.59804 4.53776C4.62111 4.49772 4.6543 4.46446 4.69429 4.44131C4.73429 4.41817 4.77967 4.40597 4.82588 4.40592H5.17421ZM5.00004 4.74609C4.96011 4.74621 4.92092 4.75679 4.88636 4.77679C4.8518 4.79678 4.82308 4.82549 4.80308 4.86005C4.76242 4.93005 4.76242 5.0163 4.80308 5.08788C4.82317 5.12224 4.85195 5.15071 4.88652 5.17042C4.92109 5.19014 4.96024 5.20042 5.00004 5.20022C5.03984 5.20042 5.07899 5.19014 5.11356 5.17042C5.14814 5.15071 5.17691 5.12224 5.197 5.08788C5.23767 5.0163 5.23767 4.93001 5.197 4.86005C5.177 4.82549 5.14828 4.79677 5.11371 4.77678C5.07914 4.75678 5.03994 4.7462 5 4.74609H5.00004ZM3.15758 4.97397H3.56613H3.15758ZM7.90854 3.22917C8.07129 2.4398 8.10708 1.83592 8.00129 1.39651C7.93946 1.13442 7.82554 0.92284 7.65138 0.768257C7.46746 0.605465 7.23471 0.525757 6.97429 0.525757C6.54296 0.525757 6.0905 0.722674 5.60708 1.09538C5.41017 1.24676 5.20508 1.43067 4.9935 1.64388C4.97558 1.62272 4.95767 1.60159 4.93654 1.58367C4.33429 1.04817 3.82813 0.716174 3.39517 0.58759C3.13804 0.51109 2.89713 0.504548 2.67742 0.577799C2.44467 0.655924 2.25908 0.817049 2.12892 1.0433C1.91408 1.41601 1.85708 1.90755 1.93683 2.51305C1.96942 2.7588 2.02637 3.02734 2.1045 3.31867C2.07408 3.32224 2.04409 3.3288 2.01496 3.33826C1.25333 3.59209 0.712916 3.86226 0.38575 4.17313C0.192041 4.35705 0.0651245 4.56376 0.0179162 4.79001C-0.0292921 5.03088 0.0179162 5.27176 0.148125 5.49801C0.362958 5.87072 0.758458 6.16372 1.32162 6.39647C1.54787 6.48922 1.80337 6.57384 2.08983 6.65034C2.07644 6.68057 2.06661 6.71226 2.06054 6.74476C1.89779 7.53251 1.862 8.13801 1.96779 8.5758C2.02962 8.83788 2.14517 9.05109 2.31771 9.20405C2.50162 9.36684 2.73438 9.44655 2.99479 9.44655C3.42613 9.44655 3.87854 9.24963 4.362 8.87855C4.56054 8.72392 4.76725 8.53838 4.98208 8.32188C5.00516 8.35663 5.0325 8.38834 5.06346 8.4163C5.66571 8.9518 6.17188 9.2838 6.60483 9.41238C6.862 9.48888 7.10288 9.49542 7.32258 9.42217C7.55533 9.34405 7.74092 9.18292 7.87108 8.95667C8.08596 8.58397 8.14292 8.09242 8.06317 7.48697C8.029 7.23142 7.97038 6.95309 7.88575 6.64872C7.91941 6.64552 7.95267 6.63899 7.98504 6.62922C8.74671 6.3753 9.28713 6.10513 9.61425 5.79422C9.80796 5.61034 9.93492 5.40363 9.98209 5.17738C10.0293 4.93651 9.98209 4.69559 9.85188 4.46938C9.63704 4.09663 9.24154 3.80367 8.67838 3.57092C8.44563 3.47492 8.18033 3.38701 7.88413 3.31051C7.89545 3.28444 7.90364 3.25713 7.90854 3.22913V3.22917Z" fill="white"/>
</svg>
