<svg width="10" height="10" viewBox="0 0 10 10" fill="none" xmlns="http://www.w3.org/2000/svg">
<g clip-path="url(#clip0)">
<path d="M6.29657 2.84329L7.63542 4.21602L7.29647 4.83457L4.9662 7.74954L2.63594 4.90239L2.297 4.21602L3.63585 2.84329H6.29659H6.29657ZM5.86475 0.703324L5.36329 1.36631C7.77364 1.60215 9.22065 4.06078 8.45786 6.21756L8.84604 6.98963L9.61743 6.93123C10.8857 3.91819 8.87329 0.350277 5.46251 0.0342813L5.86475 0.703324ZM0.343482 6.81039C-0.947983 3.5218 1.56559 -0.106109 5.15477 0.01475L5.55899 0.687074L5.05852 1.34871C2.42819 1.30163 0.607388 4.00727 1.62821 6.42184L0.792857 6.20268L0.343482 6.81039V6.81039ZM9.49794 7.19467L8.69573 7.25538L8.33112 6.53024C7.2743 8.96936 3.43682 9.69784 1.77042 6.72139L0.894654 6.49162L0.459107 7.08069C2.50022 11.2589 7.91172 10.6084 9.49794 7.19467Z" fill="white"/>
</g>
<defs>
<clipPath id="clip0">
<rect width="10" height="10" fill="white"/>
</clipPath>
</defs>
</svg>
