<svg width="12" height="12" viewBox="0 0 12 12" fill="none" xmlns="http://www.w3.org/2000/svg">
<path fill-rule="evenodd" clip-rule="evenodd" d="M1.56225 5.25H3.02175C3.0885 4.0905 3.309 3.0225 3.6495 2.1615C3.10126 2.49744 2.63131 2.94689 2.27128 3.47963C1.91125 4.01236 1.66949 4.61602 1.56225 5.25ZM6 0C4.4087 0 2.88258 0.632141 1.75736 1.75736C0.632141 2.88258 0 4.4087 0 6C0 7.5913 0.632141 9.11742 1.75736 10.2426C2.88258 11.3679 4.4087 12 6 12C7.5913 12 9.11742 11.3679 10.2426 10.2426C11.3679 9.11742 12 7.5913 12 6C12 4.4087 11.3679 2.88258 10.2426 1.75736C9.11742 0.632141 7.5913 0 6 0V0ZM6 1.5C5.943 1.5 5.826 1.524 5.65125 1.6965C5.47275 1.872 5.2785 2.16375 5.0985 2.583C4.80675 3.26325 4.59375 4.1895 4.524 5.25H7.476C7.40625 4.1895 7.19325 3.26325 6.9015 2.583C6.7215 2.163 6.5265 1.872 6.34875 1.6965C6.174 1.524 6.057 1.5 6 1.5ZM8.97825 5.25C8.9115 4.0905 8.691 3.0225 8.3505 2.1615C8.89874 2.49744 9.36869 2.94689 9.72872 3.47963C10.0887 4.01236 10.3305 4.61602 10.4377 5.25H8.97825ZM7.476 6.75H4.524C4.59375 7.8105 4.80675 8.73675 5.0985 9.417C5.2785 9.837 5.4735 10.128 5.65125 10.3035C5.826 10.476 5.943 10.5 6 10.5C6.057 10.5 6.174 10.476 6.34875 10.3035C6.52725 10.128 6.72225 9.83625 6.9015 9.417C7.19325 8.73675 7.40625 7.8105 7.476 6.75ZM8.3505 9.8385C8.691 8.97825 8.9115 7.9095 8.97825 6.75H10.4377C10.3305 7.38398 10.0887 7.98764 9.72872 8.52037C9.36869 9.05311 8.89874 9.50256 8.3505 9.8385V9.8385ZM3.6495 9.8385C3.309 8.9775 3.0885 7.9095 3.0225 6.75H1.56225C1.66949 7.38398 1.91125 7.98764 2.27128 8.52037C2.63131 9.05311 3.10126 9.50256 3.6495 9.8385V9.8385Z" fill="white"/>
</svg>
