<svg width="212" height="212" viewBox="0 0 212 212" fill="none" xmlns="http://www.w3.org/2000/svg">
	<g clip-path="url(#clip0_114_6)">
		<!-- <rect width="212" height="212" fill="white"/> -->
		<g filter="url(#filter0_d_114_6)">
			<mask id="path-1-inside-1_114_6" fill="white">
				<path d="M106 6C161.228 6 206 50.7715 206 106C206 161.228 161.228 206 106 206V6Z"/>
			</mask>
			<path d="M106 6C161.228 6 206 50.7715 206 106C206 161.228 161.228 206 106 206V6Z" fill="#FFAE10"/>
			<path d="M99 -8H106C168.96 -8 220 43.0395 220 106H192C192 58.5035 153.496 20 106 20H113L99 -8ZM220 106C220 168.96 168.96 220 106 220H99L113 192H106C153.496 192 192 153.496 192 106H220ZM99 220V-8L106 6C108.335 6 110.67 6.08181 113 6.24528L113 106V205.759L113 205.755C110.67 205.918 108.335 206 106 206L99 220ZM106 -8C168.96 -8 220 43.0395 220 106C220 168.96 168.96 220 106 220V192C153.496 192 192 153.496 192 106C192 58.5035 153.496 20 106 20V-8Z" fill="white" mask="url(#path-1-inside-1_114_6)"/>
			<mask id="path-3-inside-2_114_6" fill="white">
				<path d="M6 36C6 19.4315 19.4315 6 36 6H106V206C50.7715 206 6 161.228 6 106V36Z"/>
			</mask>
			<path d="M6 36C6 19.4315 19.4315 6 36 6H106V206C50.7715 206 6 161.228 6 106V36Z" fill="#6356EC"/>
			<path d="M-8 36C-8 11.6995 11.6995 -8 36 -8H113L99 20H36C27.1634 20 20 27.1634 20 36H-8ZM113 220H106C43.0395 220 -8 168.96 -8 106H20C20 153.496 58.5035 192 106 192H99L113 220ZM106 220C43.0395 220 -8 168.96 -8 106V36C-8 11.6995 11.6995 -8 36 -8V20C27.1634 20 20 27.1634 20 36V106C20 153.496 58.5035 192 106 192V220ZM113 -8V220L106 206C103.665 206 101.33 205.918 99.0003 205.755L99 106V20L113 -8Z" fill="white" mask="url(#path-3-inside-2_114_6)"/>
		</g>
	</g>
	<defs>
		<filter id="filter0_d_114_6" x="2" y="6" width="208" height="208" filterUnits="userSpaceOnUse" color-interpolation-filters="sRGB">
			<feFlood flood-opacity="0" result="BackgroundImageFix"/>
			<feColorMatrix in="SourceAlpha" type="matrix" values="0 0 0 0 0 0 0 0 0 0 0 0 0 0 0 0 0 0 127 0" result="hardAlpha"/>
			<feOffset dy="4"/>
			<feGaussianBlur stdDeviation="2"/>
			<feComposite in2="hardAlpha" operator="out"/>
			<feColorMatrix type="matrix" values="0 0 0 0 0 0 0 0 0 0 0 0 0 0 0 0 0 0 0.25 0"/>
			<feBlend mode="normal" in2="BackgroundImageFix" result="effect1_dropShadow_114_6"/>
			<feBlend mode="normal" in="SourceGraphic" in2="effect1_dropShadow_114_6" result="shape"/>
		</filter>
		<clipPath id="clip0_114_6">
			<rect width="212" height="212" fill="white"/>
		</clipPath>
	</defs>
</svg>
