<svg width="10" height="10" viewBox="0 0 10 10" fill="none" xmlns="http://www.w3.org/2000/svg">
<g clip-path="url(#clip0)">
<path d="M8.5872 -4.53062e-06H1.41314C1.29477 -0.000583762 1.17746 0.0222977 1.06799 0.0673179C0.958521 0.112338 0.859055 0.178605 0.775341 0.262289C0.691628 0.345973 0.625327 0.445416 0.580269 0.554872C0.535211 0.664329 0.512289 0.781629 0.512827 0.899996V9.1C0.512289 9.21836 0.535211 9.33566 0.580269 9.44512C0.625327 9.55457 0.691628 9.65402 0.775341 9.7377C0.859055 9.82139 0.958521 9.88765 1.06799 9.93267C1.17746 9.97769 1.29477 10.0006 1.41314 10H8.5872C8.70553 10.0004 8.82278 9.97748 8.9322 9.93242C9.04162 9.88735 9.14103 9.82108 9.22472 9.73742C9.30841 9.65376 9.37471 9.55437 9.41982 9.44497C9.46492 9.33557 9.48793 9.21833 9.48751 9.1V0.899996C9.48805 0.781629 9.46513 0.664329 9.42007 0.554872C9.37501 0.445416 9.30871 0.345973 9.225 0.262289C9.14129 0.178605 9.04182 0.112338 8.93235 0.0673179C8.82288 0.0222977 8.70557 -0.000583762 8.5872 -4.53062e-06V-4.53062e-06ZM8.98751 9.1C8.98751 9.32468 8.81158 9.50031 8.5872 9.50031H1.41314C1.36041 9.50089 1.30809 9.49094 1.25926 9.47103C1.21042 9.45112 1.16606 9.42165 1.12877 9.38436C1.09148 9.34707 1.06202 9.30271 1.0421 9.25388C1.02219 9.20505 1.01224 9.15273 1.01283 9.1V0.899996C1.01283 0.675308 1.18876 0.499683 1.41314 0.499683H8.5872C8.81189 0.499683 8.98751 0.675621 8.98751 0.899996V9.1ZM2.7622 8.49906L3.88689 7.5L2.7622 6.50093V8.49906ZM6.81345 4.45C6.61314 4.24968 6.23876 4.00093 5.61376 4.00093C4.93845 4.00093 4.23845 4.175 3.73876 4.35062V1.50093H2.73751V5.825L3.43751 5.49968C3.43751 5.49968 4.58845 4.97562 5.58751 4.97562C6.0872 4.97562 6.21251 5.25093 6.21251 5.49968V8.49937H7.21345V5.49968C7.23814 5.425 7.23814 4.87468 6.81345 4.45V4.45ZM5.48845 3.125H6.48751C6.93658 2.59906 7.16283 2.075 7.23783 1.50093H6.23876C6.13751 2.075 5.8872 2.59937 5.48845 3.125Z" fill="white"/>
</g>
<defs>
<clipPath id="clip0">
<rect width="10" height="10" fill="white"/>
</clipPath>
</defs>
</svg>
