<svg width="10" height="10" viewBox="0 0 10 10" fill="none" xmlns="http://www.w3.org/2000/svg">
<path d="M0 0H10V10H0V0ZM9.18125 7.61563C9.10812 7.15813 8.81 6.77563 7.92969 6.41781C7.62375 6.27469 7.28188 6.17375 7.18094 5.9425C7.14344 5.80563 7.13688 5.73094 7.16125 5.64937C7.22469 5.37906 7.54219 5.29937 7.79281 5.37437C7.95563 5.42469 8.10531 5.54844 8.19969 5.74875C8.63094 5.46719 8.63094 5.46719 8.93062 5.28C8.81844 5.10594 8.76313 5.02937 8.68656 4.95625C8.42438 4.66156 8.07469 4.51187 7.50656 4.525L7.21187 4.5625C6.93031 4.63094 6.66188 4.78063 6.49906 4.98094C6.02531 5.51813 6.16219 6.45562 6.73656 6.84469C7.30469 7.26937 8.13625 7.36219 8.24375 7.76281C8.34312 8.25125 7.88094 8.4075 7.42344 8.35031C7.08656 8.27531 6.89938 8.10625 6.6925 7.79375L5.93063 8.23156C6.01688 8.43187 6.11781 8.51812 6.2675 8.69375C6.99187 9.42469 8.805 9.38719 9.13031 8.27531C9.14156 8.23781 9.22969 7.98063 9.16125 7.58844L9.18125 7.61563ZM5.43781 4.59625H4.50188C4.50188 5.40344 4.49688 6.20594 4.49688 7.015C4.49688 7.52781 4.52281 7.99969 4.44 8.14469C4.30156 8.43125 3.94844 8.39531 3.78719 8.345C3.62281 8.26375 3.53813 8.15125 3.44219 7.98844C3.41438 7.94437 3.395 7.90719 3.38844 7.90719L2.62844 8.37594C2.75531 8.63812 2.94094 8.86437 3.18031 9.0075C3.53688 9.22062 4.01531 9.28906 4.51656 9.17687C4.84219 9.0825 5.12375 8.88875 5.27 8.58938C5.48313 8.20188 5.4375 7.72687 5.43594 7.19437C5.44094 6.33812 5.43594 5.48219 5.43594 4.61937L5.43781 4.59625Z" fill="white"/>
</svg>
