<svg width="10" height="10" viewBox="0 0 10 10" fill="none" xmlns="http://www.w3.org/2000/svg">
<g clip-path="url(#clip0)">
<path d="M4.76406 0.0634437L0.86094 2.32594C0.788993 2.3674 0.729368 2.42725 0.688182 2.49936C0.646995 2.57146 0.625729 2.65322 0.626565 2.73626V7.26251C0.626565 7.43188 0.71594 7.58813 0.86094 7.67094L4.76563 9.93657C4.83702 9.97816 4.91816 10.0001 5.00078 10.0001C5.0834 10.0001 5.16455 9.97816 5.23594 9.93657L9.13906 7.67251C9.28406 7.58782 9.37344 7.43157 9.37344 7.26407V2.73594C9.37344 2.56657 9.28406 2.41032 9.1375 2.32563L5.23625 0.0631312C5.16486 0.0215443 5.08372 -0.000366211 5.0011 -0.000366211C4.91848 -0.000366211 4.83733 0.0215443 4.76594 0.0631312L4.76406 0.0634437Z" fill="white"/>
</g>
<defs>
<clipPath id="clip0">
<rect width="10" height="10" fill="white"/>
</clipPath>
</defs>
</svg>
