<svg width="10" height="10" viewBox="0 0 10 10" fill="none" xmlns="http://www.w3.org/2000/svg">
<path d="M8.39844 0.0340619C9.66188 0.253749 10.0213 1.11656 9.99344 2.02156L10 2.00812L9.43219 9.46281L2.04437 9.96906C1.43094 9.94281 0.061875 9.8875 0.0003125 7.97531L0.685625 6.72531L1.86062 9.46937L2.07062 9.95719L3.23906 6.14719L3.22625 6.15062L3.23281 6.13719L7.08875 7.36969L6.5075 5.10562L6.09594 3.48094L9.76937 3.24344L9.51406 3.03187L6.87563 0.880312L8.40062 0.0306244L8.39844 0.0340619ZM0 7.95406V7.96375V7.9525V7.95406ZM2.13719 2.11406C3.62125 0.641249 5.53563 -0.228126 6.27125 0.514062C7.005 1.255 6.22719 3.05812 4.74125 4.52781C3.25656 6.00062 1.36531 6.9175 0.631562 6.17656C-0.104375 5.43781 0.649375 3.58687 2.13687 2.11406H2.13719Z" fill="white"/>
</svg>
